<?xml version="1.0" encoding="UTF-8"?> <svg xmlns="http://www.w3.org/2000/svg" width="740" height="356" viewBox="0 0 740 356" fill="none"> <path d="M528.549 249.396C528.549 241.541 528.099 233.084 530.829 225.577C531.751 223.041 531.247 220.449 531.431 217.785C531.677 214.223 532.164 210.82 531.938 207.206C531.69 203.244 529.74 199.276 527.979 195.803C526.211 192.316 523.202 189.787 521.422 186.364C519.732 183.114 518.34 179.7 516.006 176.862C514.075 174.513 511.149 173.272 509.164 171.287" stroke="#141414" stroke-width="3" stroke-linecap="round"></path> <path d="M496.049 133.087C498.624 136.589 501.693 139.569 503.904 143.349C506.731 148.182 509.076 153.713 513.026 157.793C515.48 160.328 518.627 162.004 521.135 164.444C523.102 166.358 524.549 168.621 526.836 170.146" stroke="#141414" stroke-width="3" stroke-linecap="round"></path> <path d="M267.994 229.441C273.337 229.441 278.231 228.379 283.451 227.161C295.847 224.268 308.269 221.179 320.447 217.468C334.283 213.252 350.239 209.961 362.605 202.011C372.556 195.614 381.412 185.425 388.23 175.88C392.15 170.392 395.125 164.079 399.126 158.744" stroke="#141414" stroke-width="3" stroke-linecap="round"></path> <path d="M277.116 162.734C277.116 158.715 276.689 154.38 277.687 150.445C278.436 147.49 279.921 144.346 281.107 141.513C283.558 135.659 291.126 129.938 297.071 127.956" stroke="#141414" stroke-width="3" stroke-linecap="round"></path> <path d="M206.991 159.883C206.991 156.188 206.991 152.492 206.991 148.797C206.991 147.093 207.376 144.92 206.675 143.317C205.464 140.55 204.711 137.822 204.711 134.797" stroke="#141414" stroke-width="3" stroke-linecap="round"></path> <path d="M193.306 131.947C193.306 138.099 191.939 146.091 193.876 151.902" stroke="#141414" stroke-width="3" stroke-linecap="round"></path> <path d="M227.516 268.211C241.016 268.211 254.549 268.781 267.995 268.781" stroke="#141414" stroke-width="3" stroke-linecap="round"></path> <path d="M266.285 249.965C270.24 252.413 273.21 256.005 277.118 258.517C281.978 261.641 287.272 262.301 292.797 263.648C304.393 266.476 316.443 268.616 328.272 270.205C334.048 270.981 339.886 271.27 345.534 272.644C349.553 273.621 353.367 278.11 356.367 280.879C361.428 285.551 366.748 290.899 370.494 296.716C372.437 299.734 375.187 303.006 376.322 306.408" stroke="#141414" stroke-width="3" stroke-linecap="round"></path> <path d="M260.076 291.934C260.707 296.21 261.116 300.217 261.116 304.554C261.116 306.239 261.116 307.923 261.116 309.608" stroke="#141414" stroke-width="3" stroke-linecap="round"></path> <path d="M240.582 328.843C244.493 328.843 247.914 327.998 248.64 323.645" stroke="#141414" stroke-width="3" stroke-linecap="round"></path> <path d="M234.084 321.045C236.962 318.929 240.268 317.591 243.282 315.717C244.319 315.073 244.864 314.195 245.78 313.508" stroke="#141414" stroke-width="3" stroke-linecap="round"></path> <path d="M151.432 238.13C151.432 240.686 151.715 241.273 154.175 242.159C156.146 242.868 157.817 244.026 159.951 244.368C161.737 244.654 164.599 244.02 165.987 245.408C167.592 247.012 169.153 248.736 170.926 250.144C173.803 252.429 176.366 256.656 176.846 260.281C177.296 263.677 178.143 269.411 176.124 272.439" stroke="#141414" stroke-width="3" stroke-linecap="round"></path> <path d="M143.113 265.422C146.555 268.444 145.712 273.513 145.712 277.638C145.712 279.875 146.044 285.042 143.893 286.475" stroke="#141414" stroke-width="3" stroke-linecap="round"></path> <path d="M199.774 305.19C199.774 309.197 200.898 313.128 200.496 317.147C200.217 319.938 199.017 322.492 198.475 325.204" stroke="#141414" stroke-width="3" stroke-linecap="round"></path> <path d="M190.678 348.596C193.393 347.51 196.519 345.889 198.057 343.282C198.748 342.11 198.547 340.561 199.255 339.499" stroke="#141414" stroke-width="3" stroke-linecap="round"></path> <path d="M176.643 341.838C178.936 341.389 181.036 340.162 183.112 339.124C184.889 338.235 186.415 337.524 187.819 336.12" stroke="#141414" stroke-width="3" stroke-linecap="round"></path> <path d="M66.6973 249.308C68.1895 251.202 71.0771 251.969 73.3108 252.687C76.1273 253.592 79.1175 253.466 82.0325 253.466C83.6282 253.466 85.7808 255.492 86.971 256.585C87.6703 257.228 88.605 257.507 89.3103 258.145C90.1379 258.894 90.8494 259.706 91.6495 260.484C93.3315 262.121 95.1216 263.526 96.5302 265.423C97.6023 266.866 98.4888 269.013 99.1294 270.679C99.7358 272.255 100.697 273.782 100.747 275.559C100.778 276.684 100.747 277.813 100.747 278.938" stroke="#141414" stroke-width="3" stroke-linecap="round"></path> <path d="M11.5938 287.774C13.8692 287.774 15.9098 288.814 18.0917 288.814C19.8776 288.814 21.3281 288.21 23.0302 287.832C24.2987 287.55 25.5407 287.029 26.799 286.749C28.8184 286.3 31.4832 288.032 33.2248 288.814C37.4408 290.706 41.4581 292.427 45.1234 295.254C47.491 297.08 49.3953 299.633 51.8813 301.29" stroke="#141414" stroke-width="3" stroke-linecap="round"></path> <path d="M92.1676 279.197C92.1676 283.168 92.5367 287.38 91.5322 291.255C90.9939 293.331 90.0781 295.353 89.5684 297.392" stroke="#141414" stroke-width="3" stroke-linecap="round"></path> <path d="M85.1523 315.066C86.8216 313.692 88.2714 311.053 88.2714 308.828" stroke="#141414" stroke-width="3" stroke-linecap="round"></path> <path d="M78.6543 310.128C79.0235 307.626 79.1983 305.069 79.694 302.591" stroke="#141414" stroke-width="3" stroke-linecap="round"></path> <path d="M150.65 342.878C152.216 341.589 154.526 340.242 155.185 338.171C155.495 337.195 155.664 334.783 156.629 334.301" stroke="#141414" stroke-width="3" stroke-linecap="round"></path> <path d="M147.271 336.12C147.633 334.653 148.015 333.18 148.311 331.701" stroke="#141414" stroke-width="3" stroke-linecap="round"></path> <path d="M731.945 2C714.659 6.02004 698.546 15.6645 683.008 23.8424C674.142 28.5087 665.186 32.2845 657.066 38.2545C652.59 41.5463 648.395 46.146 643.167 48.1188C634.283 51.4711 624.832 57.5218 616.697 62.7305L616.008 63.1715C608.455 68.0051 600.111 70.5222 591.924 74.1247C568.124 84.5966 543.776 92.3583 518.646 99.426C503.559 103.669 488.473 107.783 473.424 112.173C463.506 115.065 454.108 118.936 443.959 121.012C430.268 123.813 414.144 125.382 401.299 118.45C396.918 116.086 392.209 112.503 387.207 111.788C380.834 110.878 374.036 111.532 367.607 111.532C359.121 111.532 351.514 108.073 342.818 108.073H321.488C313.929 108.073 306.94 109.97 299.581 110.379C292.68 110.763 285.65 112.117 278.7 112.749C270.896 113.459 263.83 117.215 256.217 118.386C244.64 120.167 231.509 118.45 219.77 118.45H198.696C185.047 118.45 169.449 124.19 156.357 127.93C148.772 130.097 136.993 131.564 133.554 139.972C128.907 151.33 132.847 154.621 138.165 163.928C140.087 167.291 146.797 169.425 149.951 171.487C157.387 176.348 167.552 177.252 176.214 177.252C192.066 177.252 206.065 174.276 221.179 170.078C226.775 168.523 231.929 165.531 237.769 164.633C242.259 163.942 247.255 164.569 251.797 164.569C256.55 164.569 261.401 164.29 266.145 164.569C267.315 164.638 269.612 173.167 270.501 174.946C274.719 183.381 267.103 189.189 266.145 196.852C265.966 198.287 259.045 203.824 257.37 205.499C253.068 209.802 248.268 217.352 242.509 219.912M242.509 219.912C233.419 223.951 226.332 232.562 218.361 238.359C215.311 240.577 211.266 245.968 207.344 246.43C206.113 246.575 205.454 248.608 204.397 248.608M242.509 219.912C248.197 227.584 260.233 231.627 269.01 234.699C272.931 236.071 276.435 238.463 280.349 239.83C285.326 241.569 290.387 243.162 295.426 244.708C303.377 247.147 310.946 249.946 319.309 250.663C330.887 251.655 342.479 253.977 354.087 252.817M204.397 248.608C202.878 248.608 199.207 245.154 198.12 244.124C192.005 238.331 180.567 235.333 172.498 232.85C165.735 230.769 157.568 232.061 152.578 236.053C147.517 240.101 150.914 250.685 155.46 253.091L155.527 253.127M204.397 248.608C208.359 251.754 210.748 255.465 214.337 259.053C217.559 262.275 219.156 268.147 223.824 269.268C227.039 270.039 229.609 272.309 232.529 273.607C235.184 274.787 237.812 275.729 240.534 276.787C243.424 277.911 245.55 280.239 248.296 281.612C250.933 282.93 253.485 285.109 255.815 286.921C257.19 287.991 259.671 290.523 261.502 290.586C267.135 290.781 272.649 289.616 278.266 289.616C285.626 289.616 291.811 291.651 298.641 294.09C301.608 295.15 303.758 297.976 306.134 299.804C307.991 301.233 310.509 303.8 311.847 305.733C313.739 308.465 313.784 311.857 316.214 314.358C319.632 317.877 322.922 321.552 326.401 325.031M155.527 253.127C157.713 254.284 162.453 257.637 159.903 259.053C156.833 260.758 151.268 261.71 148.03 262.635C144.278 263.707 143.079 264.329 140.914 263.227M155.527 253.127C160.489 254.919 160.924 259.003 163.102 260.939C164.349 262.047 166.611 263.612 167.28 265.116C168.542 267.957 171.975 270.2 174.071 272.42C177.794 276.362 179.919 281.375 184.259 284.872C186.798 286.917 188.188 290.137 190.1 292.81M140.914 263.227C139.926 262.725 138.737 261.863 137.012 260.522M140.914 263.227C139.66 262.456 138.359 261.566 137.012 260.522M140.914 263.227C148.425 267.846 154.307 268.218 158.816 271.908C160.874 273.592 163.101 275.503 165.231 277.002C167.941 278.909 170.685 280.512 173.478 282.338C176.533 284.336 179.902 285.766 183.234 287.432C184.51 288.07 187.599 290.57 190.1 292.81M137.012 260.522C134.176 258.316 129.067 249.677 125.995 248.8C118.143 246.556 110.875 243.418 103.576 239.768C95.2831 235.622 87.2701 236.053 78.211 236.053C69.4281 236.053 65.5283 248.059 65.5283 255.077C65.5283 262.226 72.4985 266.135 77.6345 270.13C79.9446 271.927 84.4121 275.086 87.4347 275.254C89.2739 275.356 90.8076 275.971 92.5591 276.471M92.5591 276.471C93.7008 276.797 86.3976 277.56 85.1288 277.56C75.7026 277.56 68.1578 273.123 59.251 270.578C56.896 269.905 52.8684 269.183 50.5397 268.08C45.5989 265.74 34.2217 265.155 34.2217 265.155C34.2217 265.155 24.6687 264.174 20.3718 268.233C17.1581 271.268 12.1176 273.899 10.7396 278.378C8.76254 284.803 10.7276 289.27 16.8951 291.943C27.491 296.534 39.3028 297.708 50.0094 302.088C62.6417 307.256 74.7716 312.259 87.5407 316.964C93.3036 319.087 98.9377 321.292 104.725 323.376C109.978 325.267 114.414 329.103 119.373 331.583C121.072 332.433 122.806 333.35 124.388 334.404C126.066 335.523 127.835 335.558 129.689 336.485C135.185 339.232 140.437 341.579 145.59 344.948C149.943 347.794 159.943 347.789 164.399 345.176C166.324 344.048 169.971 343.124 172.207 343.124C174.848 343.124 178.166 341.332 179.987 343.153M92.5591 276.471C97.9364 276.471 97.1396 278.05 101.302 281.261C104.886 284.025 109.927 286.894 112.46 290.694C113.937 292.909 115.538 294.634 117.419 296.516C118.889 297.986 120.826 298.015 122.271 299.426C124.714 301.812 127.35 303.921 129.817 306.218C131.727 307.996 133.717 309.591 135.019 311.905C136.974 315.382 141.203 319.384 144.533 321.419C146.889 322.859 148.876 323.958 151.513 324.761C154.067 325.538 155.31 327.002 157.631 328.453C160.31 330.128 162.518 332.595 165.339 334.005C166.825 334.748 169.225 336.247 170.433 337.455C173.171 340.193 177.272 340.438 179.987 343.153M179.987 343.153C186.356 349.522 196.128 351.845 204.78 351.845C209.025 351.845 213.108 350.819 217.347 350.819H230.998C242.706 350.819 254.52 351.845 266.164 351.845H281.467C285.648 351.845 289.655 350.819 293.778 350.819C296.967 350.819 300.583 350.416 303.524 351.845C306.47 353.275 310.909 354.41 314.182 354.41C317.868 354.41 322.493 354.829 325.582 352.358C327.066 351.17 331.74 350.306 333.646 350.306M333.646 350.306C340.017 350.306 345.863 352.871 352.284 352.871C357.652 352.871 362.724 347.641 367.131 344.948C370.68 342.779 374.399 341.017 377.903 338.764C381.573 336.405 389.67 332.876 389.67 332.876M333.646 350.306C328.382 350.306 328.265 349.328 323.114 348.208C321.279 347.809 319.475 347.076 317.642 346.618C315.454 346.071 313.08 346.272 310.878 345.782C307.685 345.073 303.972 344.92 300.69 344.92C296.82 344.92 293.316 343.835 289.532 343.491C283.766 342.967 277.877 341.545 272.337 339.826C269.496 338.944 266.657 338.051 263.82 337.158C261.95 336.569 259.763 336.513 257.999 335.702C256.06 334.812 253.758 333.695 251.665 333.277C250.083 332.96 247.618 332.633 246.248 331.821C241.112 328.778 234.252 329.906 229.403 326.027C225.006 322.509 220.455 319.401 216.305 315.596C214.646 314.076 213.58 312.109 211.696 310.853C208.684 308.845 205.038 306.513 202.478 303.953C199.749 301.224 196.77 298.15 193.477 296.137M389.702 332.865C397.424 330.523 405.121 328.039 412.756 325.427C420.934 322.63 429.021 318.289 436.495 313.914C441.11 311.213 445.757 308.69 450.516 306.191C453.876 304.427 456.517 301.529 459.749 299.523C467.001 295.022 474.572 290.873 482.034 286.728C485.044 285.056 487.726 282.77 490.754 281.17C493.86 279.53 497.299 278.229 500.273 276.383C503.716 274.246 506.603 271.547 510.247 269.657C512.925 268.269 515.689 267.471 518.454 266.181C531.277 260.197 544.777 257.035 558.465 253.613L558.695 253.556C564.296 252.156 570.127 250.699 574.367 246.688C578.853 242.445 584.628 238.821 589.755 235.403C592.12 233.826 594.272 231.813 597.222 231.813C601.077 231.813 604.985 230.33 608.621 229.134C615.861 226.751 623.583 225.491 631.02 223.605C640.011 221.326 648.144 216.998 656.668 213.46C666.87 209.225 678.016 206.687 688.528 203.315C697.053 200.58 705.466 197.54 714.176 195.393C718.851 194.24 723.586 193.935 728.311 193.084C731.204 192.564 735.601 192.375 738 190.776M193.477 296.137C192.096 295.294 191.036 294.117 190.1 292.81M193.477 296.137C192.934 295.446 191.626 294.177 190.1 292.81M12.0324 276.655C8.15357 276.486 4.22377 274.757 3.05938 270.734C2.16819 267.656 1.78815 264.169 2.11702 260.962C2.57084 256.538 6.87967 252.445 10.9056 251.068C15.7052 249.426 21.0009 249.367 26.004 249.367C31.2569 249.367 35.8183 249.686 40.795 251.58C44.6254 253.037 48.3877 254.647 52.2264 256.087C56.4561 257.673 60.2909 258.217 64.764 258.217" stroke="black" stroke-width="3" stroke-linecap="round"></path> </svg> 