<?xml version="1.0" encoding="UTF-8"?> <svg xmlns="http://www.w3.org/2000/svg" width="712" height="328" viewBox="0 0 712 328" fill="none"> <path d="M419.851 141.655C423.421 143.135 425.396 144.925 429.342 144.925C434.111 144.925 430.997 142.07 428.933 139.93C427.025 137.951 425.166 137.671 422.53 136.933C419.977 136.218 417.453 135.278 414.856 134.708C410.119 133.668 405.407 133.195 400.848 131.416C399.027 130.705 395.604 129.397 394.922 127.352" stroke="white" stroke-width="3" stroke-linecap="round"></path> <path d="M436.198 120.403C437.583 120.403 438.451 120.404 436.607 120.085C435.04 119.813 433.504 119.394 431.93 119.176C429.009 118.774 426.182 118.154 423.347 117.36C419.485 116.279 416.562 114.662 413.721 111.82" stroke="white" stroke-width="3" stroke-linecap="round"></path> <path d="M455.666 291.13C453.651 291.13 451.179 291.085 449.414 292.208C447.38 293.502 445.138 295.109 443.857 297.214C442.076 300.14 440.02 304.633 441.558 308.148C443.076 311.619 445.315 314.755 448.432 316.999C452.557 319.968 457.859 320.723 462.66 322.173C466.301 323.272 470.455 322.755 472.744 319.586C473.773 318.161 474.259 316.35 474.528 314.628C474.877 312.397 474.446 309.172 473.343 307.202C472.817 306.264 472.231 305.37 471.606 304.496C470.835 303.417 469.698 302.663 468.983 301.526C467.654 299.408 465.87 297.916 464.312 296.004C462.962 294.347 462.018 293.471 459.929 292.855C458.626 292.47 457.654 291.13 456.312 291.13" stroke="white" stroke-width="3" stroke-linecap="round"></path> <path d="M408.408 289.61C408.595 283.916 411.578 279.977 416.456 277.538" stroke="white" stroke-width="3" stroke-linecap="round"></path> <path d="M400.67 274.754C404.276 269.919 408.253 267.283 414.152 266.224C417.861 265.559 421.966 264.539 425.743 264.539" stroke="white" stroke-width="3" stroke-linecap="round"></path> <path d="M620.463 219.196C618.698 219.196 616.931 219.221 615.166 219.196C613.871 219.179 613.226 218.529 612.132 217.999C610.758 217.334 609.289 216.675 608.084 215.726C606.694 214.633 605.609 213.125 604.471 211.789C602.98 210.039 602.495 208.689 601.793 206.554C601.346 205.197 601.235 203.622 600.189 202.576" stroke="white" stroke-width="3" stroke-linecap="round"></path> <path d="M677.079 222.849C675.326 222.849 673.565 223.07 671.823 223.031C670.789 223.008 669.794 222.599 668.82 222.301C664.468 220.967 662.149 217.172 659.353 213.909C658.274 212.651 656.997 211.534 656.359 209.962C655.81 208.608 655.617 207.205 655.517 205.762C655.379 203.752 655.162 201.653 655.162 199.653" stroke="white" stroke-width="3" stroke-linecap="round"></path> <path d="M709.078 218.197C706.99 222.922 700.699 224.829 695.938 224.829C688.923 224.829 686.258 218.4 683.289 213.271C680.99 209.302 680.72 204.205 679.905 199.722C679.368 196.772 679.083 193.791 678.131 190.935" stroke="white" stroke-width="3" stroke-linecap="round"></path> <path d="M574.934 164.243C576.176 163.319 577.835 162.376 577.765 160.625C577.738 159.948 576.951 158.946 578.048 158.58" stroke="white" stroke-width="3" stroke-linecap="round"></path> <path d="M564.175 153.484C564.12 156.322 562.615 161.127 565.59 162.827" stroke="white" stroke-width="3" stroke-linecap="round"></path> <path d="M592.486 156.317C592.721 155.688 592.821 153.46 593.336 153.203" stroke="white" stroke-width="3" stroke-linecap="round"></path> <path d="M580.877 143.293C580.71 144.383 579.799 149.747 581.16 150.088" stroke="white" stroke-width="3" stroke-linecap="round"></path> <path d="M676.547 225.563C684.658 225.563 689.462 235.375 698.184 235.375C701.788 235.375 708.834 236.33 709.922 231.433C710.445 229.083 711.09 219.525 709.222 218.03C704.66 214.381 703.912 208.874 698.622 205.415C693.003 201.741 689.229 196.163 683.203 193.15C676.309 189.703 671.284 184.3 663.931 181.412C655.664 178.164 649.97 171.599 642.205 167.921C625.255 159.892 607.013 154.78 591.045 144.618C578.953 136.923 561.955 136.657 548.207 133.668C516.521 126.78 483.894 124.163 453.683 112.468C420.967 99.8038 387.588 90.3686 353.64 81.1934C344.933 78.8403 336.709 73.4786 328.322 71.3818C322.202 69.8518 313.806 66.5932 308.699 62.6215C299.244 55.2678 289.705 46.1521 277.162 46.1521C253.935 46.1521 230.873 50.8827 207.342 50.8827C194.697 50.8827 180.079 49.2667 167.57 47.3785C155.678 45.5834 142.959 45.562 131.302 42.6479C109.901 37.2976 86.0755 30.1224 65.9503 20.9223C47.9535 12.6952 24.7409 2.33199 5.15356 2L2 167.571C21.373 167.571 38.2912 166.691 57.1901 163.191C68.8648 161.029 81.2749 158.926 93.1075 158.11C109.012 157.013 124.807 154.956 140.851 154.956C156.149 154.956 174.685 155.781 189.296 151.452C195.968 149.475 203.178 150.226 210.146 150.226C217.227 150.226 220.71 153.993 226.703 157.322C232.598 160.597 237.51 162.267 240.894 168.36C245.377 176.428 247.534 185.662 254.298 192.801C259.025 197.79 262.313 203.912 268.489 207.343C274.728 210.809 282.561 216.097 288.2 220.484C292.669 223.96 295.523 229.12 299.326 232.923C304.882 238.479 311.902 239.932 318.949 243.26C327.211 247.162 334.698 252.711 342.602 257.102C349.157 260.743 358.054 262.999 363.802 267.702C368.91 271.881 376.686 272.614 381.235 277.163C388.424 284.352 399.088 287.352 406.465 295.297C416.941 306.579 430.162 313.497 443.521 320.176C451.092 323.962 470.73 330.525 475.846 321.315C481.63 310.904 474.299 296.115 467.174 288.989C457.44 279.256 451.198 269.624 438.002 263.76C428.084 259.352 418.152 252.28 409.18 246.414C396.988 238.442 392.782 229.724 384.301 218.819M676.547 225.563C662.759 242.798 634.314 212.673 620.13 208.919M676.547 225.563C680.678 220.399 670.335 211.626 664.983 208.568C660.96 206.269 658.595 204.219 656.047 201.035C653.694 198.093 650.144 193.775 646.148 192.887C638.871 191.27 627.973 183.682 623.284 177.82C617.865 171.046 605.358 166.436 597.266 162.839C580.624 155.443 563.324 145.494 544.441 145.494C535.413 145.494 487.073 150.6 482.943 142.34M384.301 218.819C377.257 209.762 370.364 196.432 359.947 191.224M384.301 218.819C401.857 222.187 417.175 214.942 431.695 209.357C442.214 205.311 455.24 206.992 466.386 206.992C480.729 206.992 492.729 198.772 505.808 195.866C519.133 192.905 533.527 191.324 547.594 192.887M547.594 192.887C561.369 194.418 574.947 197.671 588.593 199.107M547.594 192.887C554.022 193.979 562.369 198.107 567.915 201.637C570.395 203.215 572.713 205.104 575.043 206.916C577.175 208.575 579.615 209.882 581.459 211.911C585.137 215.957 589.828 218.924 594.576 221.536C599.83 224.425 606.564 227.002 612.689 226.47C617.404 226.06 623.734 222.503 620.831 216.987C619.583 214.617 617.156 212.093 614.983 210.774C613.27 209.734 609.615 207.087 608.944 205.073M588.593 199.107C600.103 200.319 609.364 206.069 620.13 208.919M588.593 199.107C595.971 199.884 602.425 202.526 608.944 205.073M620.13 208.919C616.265 207.896 612.594 206.499 608.944 205.073M568.188 203.151C567.998 212.652 554.311 211.301 548.153 211.301C544.816 211.301 541.997 211.101 539.135 209.245C535.379 206.809 531.949 204.124 528.268 201.604C524.358 198.926 520.737 194.79 515.893 193.982" stroke="white" stroke-width="3" stroke-linecap="round"></path> </svg>